<svg xmlns:xlink="http://www.w3.org/1999/xlink" xmlns="http://www.w3.org/2000/svg" data-v-02b41ee4="" data-v-7b6799eb="" aria-hidden="true" class="svg-icon svg-icon--default svg-icon--primary media-icon animate icon" width="17"  height="17" ><defs><symbol xmlns="http://www.w3.org/2000/svg" fill="none" viewBox="0 0 16 16" id="icon-media-animate-bb"><path fill="#FFFFFF" fill-rule="evenodd" d="M7.44 5.198V2.286H1a1 1 0 00-1 1v1.286h1.286a1 1 0 011 1v4.857a1 1 0 01-1 1H0v1.286a1 1 0 001 1h14a1 1 0 001-1v-1.286h-1.286a1 1 0 01-1-1V5.572a1 1 0 011-1H16V3.286a1 1 0 00-1-1H8.583v2.917a2.858 2.858 0 010 5.595v2.907H7.44v-2.902a2.858 2.858 0 010-5.605zM8 6.286a1.714 1.714 0 110 3.429 1.714 1.714 0 010-3.429z" clip-rule="evenodd"></path></symbol></defs><use data-v-02b41ee4="" xlink:href="#icon-media-animate-bb" fill="#FFFFFF"></use></svg>