<svg xmlns:xlink="http://www.w3.org/1999/xlink" xmlns="http://www.w3.org/2000/svg" data-v-02b41ee4="" aria-hidden="true" class="svg-icon svg-icon--default svg-icon--primary" width="24"  height="24" ><defs><symbol xmlns="http://www.w3.org/2000/svg" fill="none" viewBox="0 0 24 24" id="icon-common-cancel"><path fill="#1F2022" d="M16.129 16.18l1.093-1.149-2.769-2.908 2.769-2.909-1.093-1.147-2.769 2.908-2.769-2.908L9.5 9.214l2.768 2.909L9.5 15.03l1.092 1.148 2.77-2.908 2.768 2.908z"></path><path fill="#1F2022" fill-rule="evenodd" d="M19.79 4C21.011 4 22 5.039 22 6.321V17.68C22 18.96 21.011 20 19.79 20H8.205c-.736 0-1.367-.387-1.785-1.033L2 11.996 6.423 5.02C6.837 4.381 7.468 4 8.205 4H19.79zM3.606 11.995l3.925 6.19c.178.276.408.417.682.417h11.585c.486 0 .88-.413.88-.924V6.32c0-.51-.394-.924-.88-.924H8.213c-.279 0-.507.138-.678.403l-3.929 6.196z" clip-rule="evenodd"></path></symbol></defs><use data-v-02b41ee4="" xlink:href="#icon-common-cancel" fill="#FFFFFF"></use></svg>