<svg xmlns:xlink="http://www.w3.org/1999/xlink" xmlns="http://www.w3.org/2000/svg" data-v-02b41ee4="" data-v-7ca0df28="" aria-hidden="true" class="svg-icon svg-icon--default svg-icon--primary icon" width="14"  height="14" ><defs><symbol xmlns="http://www.w3.org/2000/svg" fill="none" viewBox="0 0 10 9" id="icon-match-detail-textGame"><path fill="#FFFFFF" d="M1.73 8.02H.35L.8 7V.79h8.84v1.29c0 .153-.03.297-.09.43a1.168 1.168 0 01-.59.59 1.12 1.12 0 01-.42.08H2.19v.39h7.45v3.34c0 .153-.03.297-.09.43a1.168 1.168 0 01-.59.59 1.12 1.12 0 01-.42.08h-1.2l.41-.99h.19a.3.3 0 00.22-.09c.06-.06.09-.137.09-.23V4.44H2.19V7l-.46 1.02zm.46-5.75h5.75a.3.3 0 00.22-.09c.06-.06.09-.137.09-.23V1.7H2.19v.57zm5.47 2.37v1.69c0 .153-.03.297-.09.43-.053.127-.13.24-.23.34-.1.1-.216.18-.35.24-.133.053-.276.08-.43.08H2.61V4.64h5.05zm-1.28.99H3.89v.8h2.18a.3.3 0 00.22-.09.3.3 0 00.09-.22v-.49z"></path></symbol></defs><use data-v-02b41ee4="" xlink:href="#icon-match-detail-textGame" fill="#FFFFFF"></use></svg>