<svg xmlns:xlink="http://www.w3.org/1999/xlink" xmlns="http://www.w3.org/2000/svg" data-v-02b41ee4="" data-v-d94449c8="" aria-hidden="true" class="svg-icon svg-icon--default svg-icon--primary refresh-btn" width="14"  height="14" ><defs><symbol xmlns="http://www.w3.org/2000/svg" fill="none" viewBox="0 0 8 10" id="icon-common-refresh"><path fill="#FFFFFF" fill-rule="evenodd" d="M2.406 4.857H0l.01-.762h.01C.221 2.17 1.931.667 4.01.667 6.09.667 7.8 2.17 8 4.095h-.807C6.996 2.592 5.646 1.43 4.01 1.43S1.025 2.592.827 4.095h1.579v.762zm3.188.286H8l-.01.762H5.593v-.762zM0 5.905C.201 7.83 1.91 9.333 3.99 9.333S7.78 7.83 7.98 5.905h-.807C6.976 7.408 5.626 8.57 3.99 8.57S1.004 7.408.807 5.905H0z" clip-rule="evenodd"></path></symbol></defs><use data-v-02b41ee4="" xlink:href="#icon-common-refresh" fill="#1F2022"></use></svg>