<svg xmlns:xlink="http://www.w3.org/1999/xlink" xmlns="http://www.w3.org/2000/svg" data-v-02b41ee4="" data-v-f8c58f5e="" aria-hidden="true" class="svg-icon svg-icon--default svg-icon--primary" width="21"  height="21" ><defs><symbol xmlns="http://www.w3.org/2000/svg" fill="none" viewBox="0 0 20 20" id="icon-common-collapseall"><path fill="#333333" fill-rule="evenodd" d="M9.488 9.135a.655.655 0 01.508-.226c.198 0 .37.072.507.226l5.29 5.59a.75.75 0 01.207.524c0 .425-.31.751-.714.751a.714.714 0 01-.499-.217l-4.791-5.056-4.783 5.056a.75.75 0 01-.508.217C4.301 16 4 15.674 4 15.25a.75.75 0 01.206-.525l5.282-5.59zm0-5.909A.655.655 0 019.996 3c.198 0 .37.072.507.226l5.29 5.59A.75.75 0 0116 9.34c0 .425-.31.75-.714.75a.714.714 0 01-.499-.216L9.996 4.818 5.213 9.874a.751.751 0 01-.508.217c-.404 0-.705-.326-.705-.75a.75.75 0 01.206-.525l5.282-5.59z" clip-rule="evenodd"></path></symbol></defs><use data-v-02b41ee4="" xlink:href="#icon-common-collapseall" fill="#FFFFFF"></use></svg>