<svg xmlns:xlink="http://www.w3.org/1999/xlink" xmlns="http://www.w3.org/2000/svg" data-v-02b41ee4="" data-v-7b6799eb="" aria-hidden="true" class="svg-icon svg-icon--default svg-icon--primary barrage icon" width="26"  height="26" ><defs><symbol xmlns="http://www.w3.org/2000/svg" fill="none" viewBox="0 0 26 26" id="icon-chat-barrage"><rect width="26" height="26" fill="#000" fill-opacity="0.3" rx="13"></rect><path fill="#FFFFFF" fill-rule="evenodd" d="M22.79 14.947a10.044 10.044 0 00.02-4h.69a.5.5 0 000-1h-.941a9.969 9.969 0 00-1.519-3h2.46a.5.5 0 000-1h-3.307A9.97 9.97 0 0013 2.895c-5.523 0-10 4.477-10 10s4.477 10 10 10c2.23 0 4.29-.73 5.953-1.964.041.01.084.016.129.016H22.5a.5.5 0 000-1h-2.41a9.999 9.999 0 002.436-4h1.38a.5.5 0 000-1h-1.117zM13 21.842a8.947 8.947 0 110-17.895 8.947 8.947 0 010 17.895zm1.929-5.861v1.48c0 .159-.03.28-.09.362-.06.083-.162.124-.303.124-.27 0-.404-.162-.404-.486v-1.48h-2.466c-.29 0-.435-.128-.435-.383 0-.262.145-.393.435-.393h2.466v-.9h-1.68c-.34 0-.571-.071-.695-.213-.124-.141-.186-.378-.186-.709v-3.187c0-.332.062-.564.186-.699s.356-.202.696-.202h.5a7.636 7.636 0 00-.23-.362 4.507 4.507 0 00-.228-.31c-.078-.118-.108-.22-.09-.306.018-.086.08-.178.186-.274a.416.416 0 01.303-.078c.095.018.2.102.313.254.078.11.17.262.276.455.107.193.213.4.32.621h1.423c.12-.18.232-.36.335-.543.103-.183.204-.364.303-.544a.477.477 0 01.25-.232.35.35 0 01.324.025c.113.07.175.15.186.244a.582.582 0 01-.07.315c-.07.138-.137.266-.201.383a4.635 4.635 0 01-.213.352h.51c.34 0 .57.067.691.202.12.135.18.367.18.699v3.187c0 .331-.06.568-.18.71-.12.14-.35.211-.69.211h-1.722v.9h2.646c.283 0 .425.132.425.394 0 .255-.142.383-.425.383h-2.646zm-4.835-2.463c.141 0 .269.012.382.036.113.024.21.067.292.13a.61.61 0 01.192.263c.046.114.069.26.069.44a11.149 11.149 0 01-.101 1.496 8.139 8.139 0 01-.112.636 3.847 3.847 0 01-.127.466c-.085.22-.2.397-.346.528a1.17 1.17 0 01-.505.269c-.19.048-.4.053-.627.015a2.4 2.4 0 01-.7-.243c-.164-.083-.268-.164-.314-.243-.046-.08-.041-.188.016-.326.063-.131.15-.205.26-.223a.556.556 0 01.345.068c.184.096.34.165.468.207a.7.7 0 00.319.041.311.311 0 00.207-.13c.053-.072.1-.174.143-.305.085-.31.153-.653.202-1.03a9.32 9.32 0 00.075-1.215c0-.076-.057-.114-.17-.114H8.744c-.149 0-.271-.014-.367-.042a.447.447 0 01-.228-.145.613.613 0 01-.117-.29A2.992 2.992 0 018 13.322l.138-1.387a1.9 1.9 0 01.043-.43.635.635 0 01.148-.294.613.613 0 01.287-.166c.12-.034.273-.052.457-.052h1.02c.043 0 .064-.037.064-.113V9.357c0-.062-.021-.093-.063-.093h-1.53a.698.698 0 01-.362-.077c-.085-.052-.128-.15-.128-.295 0-.16.041-.264.123-.316.081-.052.203-.078.366-.078h1.445c.34 0 .581.08.723.238.142.159.213.4.213.725v1.397c0 .331-.073.564-.218.699-.145.134-.385.201-.718.201h-1.01c-.042 0-.063.049-.063.145l-.138 1.511c0 .07.053.104.16.104h1.136zm4.835 0v-1.366h1.806v1.2c0 .11-.039.166-.116.166h-1.69zm0-3.467v1.355h1.806v-1.2a.215.215 0 00-.026-.109c-.018-.03-.048-.046-.09-.046h-1.69zm-2.444 3.467c-.071 0-.107-.055-.107-.166v-1.2h1.754v1.366h-1.647zm-.107-2.112h1.754v-1.355h-1.499c-.078 0-.14.02-.186.062-.046.041-.069.086-.069.134v1.16z" clip-rule="evenodd"></path></symbol></defs><use data-v-02b41ee4="" xlink:href="#icon-chat-barrage" fill="#FFFFFF"></use></svg>