<svg xmlns:xlink="http://www.w3.org/1999/xlink" xmlns="http://www.w3.org/2000/svg" data-v-02b41ee4="" data-v-52f9471c="" aria-hidden="true" class="svg-icon svg-icon--default svg-icon--primary" width="16"  height="16" ><defs><symbol xmlns="http://www.w3.org/2000/svg" fill="none" viewBox="0 0 16 16" id="icon-weather-pressure"><path fill="#888888" d="M1.5 13.37a.6.6 0 01.6-.6h11.8a.6.6 0 110 1.2H2.1a.6.6 0 01-.6-.6zM7.42 4.263a.58.58 0 011.16 0v6.157a.58.58 0 11-1.16 0V4.263zM3.82 11c.616 0 1.207-.257 1.642-.714.435-.458.68-1.078.68-1.725v-6.98a.58.58 0 10-1.16 0v6.98c0 .241-.069.477-.196.678-.128.2-.31.356-.521.449a1.109 1.109 0 01-.671.07 1.145 1.145 0 01-.594-.335 1.24 1.24 0 01-.318-.624 1.277 1.277 0 01.066-.705 1.209 1.209 0 01.493-.59c.288-.174.58-.436.58-.772 0-.337-.279-.618-.603-.527-.39.11-.749.326-1.04.631A2.503 2.503 0 001.5 8.561c0 .647.245 1.267.68 1.725A2.266 2.266 0 003.82 11zm8.358 0c.615 0 1.206-.257 1.641-.714.435-.458.68-1.078.68-1.725s-.245-1.267-.68-1.725c-.29-.305-.65-.52-1.04-.63-.323-.092-.601.189-.601.526 0 .336.291.598.58.772l.064.043c.191.134.34.324.428.547.088.223.11.468.066.705a1.24 1.24 0 01-.318.624c-.162.17-.369.287-.594.334a1.109 1.109 0 01-.67-.07 1.175 1.175 0 01-.521-.448 1.263 1.263 0 01-.196-.678v-6.98a.58.58 0 00-1.16 0v6.98c0 .32.06.637.176.933.116.296.287.565.503.792A2.266 2.266 0 0012.18 11z"></path></symbol></defs><use data-v-02b41ee4="" xlink:href="#icon-weather-pressure" fill="#FFFFFF"></use></svg>