<svg xmlns:xlink="http://www.w3.org/1999/xlink" xmlns="http://www.w3.org/2000/svg" data-v-02b41ee4="" data-v-52f9471c="" aria-hidden="true" class="svg-icon svg-icon--default svg-icon--primary" width="16"  height="16" ><defs><symbol xmlns="http://www.w3.org/2000/svg" fill="none" viewBox="0 0 16 16" id="icon-weather-humidity"><path fill="#888888" d="M14.313 10.928a3.707 3.707 0 00-1.509-2.256V2.667a2.133 2.133 0 10-4.267 0v6.005a3.679 3.679 0 00-1.013 1.056 3.688 3.688 0 00-.496 2.816 3.714 3.714 0 001.637 2.341 3.69 3.69 0 002.816.496 3.694 3.694 0 002.342-1.637c.533-.843.71-1.845.49-2.816zm-1.397 2.24a2.62 2.62 0 01-1.675 1.168 2.648 2.648 0 01-2.01-.357 2.64 2.64 0 01-1.168-1.675 2.647 2.647 0 01.357-2.01c.23-.363.539-.657.912-.875l.267-.155V2.667c0-.587.48-1.067 1.066-1.067.587 0 1.067.48 1.067 1.067v6.608l.368.208a2.641 2.641 0 011.168 1.674c.16.694.032 1.408-.352 2.01zm-1.712-2.939V5.333h-1.067v4.896a1.598 1.598 0 101.067 0z"></path><path stroke="#888888" d="M5.882 7.697a1.892 1.892 0 01-1.905 1.884 1.896 1.896 0 01-1.905-1.884c0-.22.113-.633.34-1.193.217-.537.51-1.142.806-1.715a41.25 41.25 0 01.76-1.392c.214.378.486.868.757 1.39.298.573.59 1.178.807 1.715.227.56.34.974.34 1.195z" fill="none"></path></symbol></defs><use data-v-02b41ee4="" xlink:href="#icon-weather-humidity" fill="#FFFFFF"></use></svg>