<svg xmlns:xlink="http://www.w3.org/1999/xlink" xmlns="http://www.w3.org/2000/svg" data-v-02b41ee4="" data-v-52f9471c="" aria-hidden="true" class="svg-icon svg-icon--default svg-icon--primary" width="17"  height="16" ><defs><symbol xmlns="http://www.w3.org/2000/svg" fill="none" viewBox="0 0 17 16" id="icon-weather-temperature"><path fill="#888888" d="M5.108 3.85l-1.67-1.663-.751.752L4.35 4.603l.757-.752zM9.033.534H7.967v2.134h1.066V.533zM2.687 13.061l.752.752 1.664-1.664-.752-.752-1.664 1.664zm.48-5.594H1.033v1.066h2.134V7.467zm12.71 3.46a3.707 3.707 0 00-1.51-2.255V2.667a2.133 2.133 0 10-4.267 0v6.005a3.679 3.679 0 00-1.013 1.056 3.688 3.688 0 00-.496 2.816 3.714 3.714 0 001.637 2.341 3.69 3.69 0 002.816.496 3.694 3.694 0 002.341-1.637c.534-.843.71-1.845.491-2.816zm-1.398 2.24a2.62 2.62 0 01-1.675 1.169 2.648 2.648 0 01-2.01-.357 2.64 2.64 0 01-1.169-1.675 2.647 2.647 0 01.358-2.01c.23-.363.538-.657.912-.875l.266-.155V2.667c0-.587.48-1.067 1.067-1.067s1.067.48 1.067 1.067v6.608l.368.208a2.641 2.641 0 011.168 1.674c.16.694.032 1.408-.352 2.01zm-1.712-2.938V5.333H11.7v4.896a1.598 1.598 0 101.067 0zm-8-2.23A3.737 3.737 0 018.5 4.268c.181 0 .357.02.533.042V3.232A5.961 5.961 0 008.5 3.2 4.807 4.807 0 003.7 8c0 2.277 1.6 4.187 3.733 4.677v-1.104A3.735 3.735 0 014.767 8z"></path></symbol></defs><use data-v-02b41ee4="" xlink:href="#icon-weather-temperature" fill="#FFFFFF"></use></svg>