<svg xmlns:xlink="http://www.w3.org/1999/xlink" xmlns="http://www.w3.org/2000/svg" data-v-02b41ee4="" data-v-52f9471c="" aria-hidden="true" class="svg-icon svg-icon--default svg-icon--primary" width="16"  height="16" ><defs><symbol xmlns="http://www.w3.org/2000/svg" fill="none" viewBox="0 0 16 16" id="icon-weather-wind"><path fill="#888888" d="M2.613 6.433h5.738c1.24 0 2.263-.985 2.267-2.21C10.622 2.998 9.613 2 8.373 2a2.248 2.248 0 00-2.06 1.331.605.605 0 00.546.843c.253.007.48-.14.581-.367.158-.353.514-.595.931-.595.565 0 1.024.456 1.018 1.015-.005.553-.47.994-1.03.994H2.613c-.339 0-.613.271-.613.606a.61.61 0 00.613.606zm8.141 3.134c-.008 0-1.233 0-7.047.085l-.28.004a.61.61 0 00-.604.614.61.61 0 00.623.597c.086 0 .18-.002.28-.004 1.703-.025 6.884-.083 7.032-.084a1.012 1.012 0 011.012 1.076c-.038.536-.49.943-1.032.933a1.012 1.012 0 01-.916-.599.614.614 0 00-.58-.363.605.605 0 00-.546.843A2.251 2.251 0 0010.757 14c1.251-.001 2.274-1.037 2.242-2.272-.031-1.197-1.026-2.161-2.245-2.161z"></path><path fill="#888888" d="M13.503 3.749c-.417-.18-.87.157-.87.645v.02c0 .28.157.536.397.64.395.171.676.592.676 1.081 0 .642-.482 1.163-1.074 1.163H1.647C1.289 7.298 1 7.612 1 8c0 .388.289.701.647.701h10.987C13.938 8.7 15 7.55 15 6.135c-.001-1.082-.622-2.01-1.497-2.386z"></path></symbol></defs><use data-v-02b41ee4="" xlink:href="#icon-weather-wind" fill="#FFFFFF"></use></svg>