<svg xmlns:xlink="http://www.w3.org/1999/xlink" xmlns="http://www.w3.org/2000/svg" data-v-02b41ee4="" data-v-2ab8faf6="" aria-hidden="true" class="svg-icon svg-icon--default svg-icon--primary" width="17"  height="17" ><defs><symbol xmlns="http://www.w3.org/2000/svg" fill="none" viewBox="0 0 17 17" id="icon-notice-speaker"><rect width="17" height="17" fill="url(&quot;#icon-notice-speaker_paint0_linear_19140_62024&quot;)" rx="8.5"></rect><path fill="#FFFFFF" d="M8.942 4.46c.049 0 .087.024.097.036v8.008a.144.144 0 01-.097.036.105.105 0 01-.076-.03l-2.491-2.322-.218-.202H4.454V7.014h1.703l.218-.203 2.49-2.321a.105.105 0 01.077-.03zm0-.764a.858.858 0 00-.59.232L5.86 6.25H4.332c-.351 0-.636.269-.636.6v3.3c0 .331.285.6.636.6h1.529l2.49 2.322c.173.16.384.232.591.232.437 0 .855-.32.855-.801V4.497c0-.482-.418-.801-.855-.801zm3.245 5.077h-1.408a.38.38 0 01-.379-.382.38.38 0 01.38-.382h1.407a.38.38 0 01.378.382.38.38 0 01-.378.382zm.112-2.917l-1.219.71a.376.376 0 01-.38.001.383.383 0 01.001-.664l1.22-.71a.376.376 0 01.38-.001.383.383 0 01-.002.664zm-.379 5.677l-1.219-.71a.383.383 0 01-.001-.663.376.376 0 01.38.002l1.219.71a.383.383 0 01.001.663.376.376 0 01-.38-.002z"></path><defs><linearGradient id="icon-notice-speaker_paint0_linear_19140_62024" x1="8.5" x2="8.5" y1="0" y2="17" gradientUnits="userSpaceOnUse"><stop stop-color="#67AAF8"></stop><stop offset="1" stop-color="#3270E1"></stop></linearGradient></defs></symbol></defs><use data-v-02b41ee4="" xlink:href="#icon-notice-speaker" fill="#FFFFFF"></use></svg>