<svg xmlns:xlink="http://www.w3.org/1999/xlink" xmlns="http://www.w3.org/2000/svg" data-v-02b41ee4="" data-v-7ca0df28="" aria-hidden="true" class="svg-icon svg-icon--default svg-icon--primary icon" width="13"  height="13" ><defs><symbol xmlns="http://www.w3.org/2000/svg" fill="none" viewBox="0 0 10 8" id="icon-match-detail-corner"><path fill="#FFFFFF" d="M7.18 2.15l.18-.55H1.21L1.8.27h1.47L3.12.6h5.86l-.41 1.55h.11c.167 0 .303.057.41.17.113.107.17.243.17.41v3.69c0 .173-.027.32-.08.44a.92.92 0 01-.24.34 1.095 1.095 0 01-.35.24c-.147.053-.29.08-.43.08H6.88l.43-.99h.25c.073 0 .147-.03.22-.09a.28.28 0 00.09-.22V6.2H5.68v1.32H4.3V6.2H2.12v1.32H.73V2.15h6.45zm-5.06.99v.57H4.3v-.57H2.12zM4.3 5.2v-.48H2.12v.48H4.3zm3.22-2.06H5.68v.57h2.19v-.22a.32.32 0 00-.1-.25.34.34 0 00-.25-.1zm.35 2.06v-.48H5.68v.48h2.19z"></path></symbol></defs><use data-v-02b41ee4="" xlink:href="#icon-match-detail-corner" fill="#FFFFFF"></use></svg>