<svg xmlns:xlink="http://www.w3.org/1999/xlink" xmlns="http://www.w3.org/2000/svg" data-v-02b41ee4="" data-v-3d41238a="" aria-hidden="true" class="svg-icon svg-icon--default svg-icon--white customer-icon" width="24"  height="24" ><defs><symbol xmlns="http://www.w3.org/2000/svg" fill="none" viewBox="0 0 24 24" id="icon-common-customer-service"><path fill="url(&quot;#icon-common-customer-service_paint0_linear_22423_20749&quot;)" fill-rule="evenodd" d="M2 15.5v-3.802c.639-4.954 4.872-8.781 10-8.781s9.361 3.827 10 8.78v3.804l.001.116c.002.152.004.257-.041.331-.027.044-.011.147.04.147 1.262 0 2-1.023 2-2.285v-2.286a2.287 2.287 0 00-1.625-2.19C20.864 5.063 16.79 2 12 2S3.135 5.062 1.626 9.335A2.287 2.287 0 000 11.524v2.286c0 1.262.738 2.285 2 2.285.051 0 .067-.103.04-.147-.045-.074-.043-.179-.041-.33L2 15.5zM12 5c-4.418 0-8 3.623-8 8.092a8.108 8.108 0 003.618 6.77c.339.343.432 1.264.534 2.281.029.282.058.57.094.857l.06-.066c.332-.37 1.718-1.915 3.695-1.915 4.418 0 8-3.458 8-7.927C20 8.623 16.419 5 12 5zm-3 5a3 3 0 100 6h6a3 3 0 100-6H9zm-1.285 3.125a1.125 1.125 0 112.25 0 1.125 1.125 0 01-2.25 0zM12.268 12a1.125 1.125 0 100 2.25 1.125 1.125 0 000-2.25zm3.43 0a1.125 1.125 0 100 2.25 1.125 1.125 0 000-2.25z" clip-rule="evenodd"></path><defs><linearGradient id="icon-common-customer-service_paint0_linear_22423_20749" x1="12" x2="12" y1="2" y2="23" gradientUnits="userSpaceOnUse"><stop stop-color="#FFE2B5"></stop><stop offset="1" stop-color="#FFB77C"></stop></linearGradient></defs></symbol></defs><use data-v-02b41ee4="" xlink:href="#icon-common-customer-service" fill="#FFFFFF"></use></svg>