<svg xmlns:xlink="http://www.w3.org/1999/xlink" xmlns="http://www.w3.org/2000/svg" data-v-02b41ee4="" data-v-7ca0df28="" aria-hidden="true" class="svg-icon svg-icon--default svg-icon--primary icon" width="14"  height="14" ><defs><symbol xmlns="http://www.w3.org/2000/svg" fill="none" viewBox="0 0 10 9" id="icon-match-detail-textSet"><path fill="#FFFFFF" d="M1.15 3.67H.59v-.83h.56V1.17h1.39l.35-.39h1.54l-.33.39h3.89c.247 0 .453.087.62.26.173.173.26.383.26.63v.78h.54v.83h-.54v.29a.873.873 0 01-.28.67 1.057 1.057 0 01-.3.21.817.817 0 01-.37.08H6.29l.56-.88h.4c.067 0 .123-.02.17-.06.04-.047.06-.1.06-.16v-.15H2.54v.51l-.35.74H.8l.35-.74v-.51zm8.26 4.34H.59v-.99h.32V5.13h7.08c.147 0 .287.033.42.1a.73.73 0 01.19.1c.053.04.11.087.17.14.087.087.163.2.23.34.06.127.09.267.09.42v.79h.32v.99zM2.54 2.84h1.71l-.23-.61h1.4l.24.61h1.82V2.3c0-.1-.02-.17-.06-.21-.033-.04-.11-.06-.23-.06H2.54v.81zm1.48 1.01h1.4l.35.96H4.38l-.36-.96zm1.41 2.27h-.89v.9h.89v-.9zm2.27.33c0-.093-.03-.17-.09-.23a.316.316 0 00-.23-.1h-.56v.9h.88v-.57zm-5.39.57h.84v-.9h-.84v.9z"></path></symbol></defs><use data-v-02b41ee4="" xlink:href="#icon-match-detail-textSet" fill="#FFFFFF"></use></svg>