<svg xmlns:xlink="http://www.w3.org/1999/xlink" xmlns="http://www.w3.org/2000/svg" data-v-02b41ee4="" aria-hidden="true" class="svg-icon svg-icon--default svg-icon--primary" width="34"  height="32" ><defs><symbol xmlns="http://www.w3.org/2000/svg" fill="none" viewBox="0 0 30 28" id="icon-bet-parlay"><path fill="#333333" fill-rule="evenodd" d="M22.5.5H.5V17c0 5.799 4.701 10.5 10.5 10.5h15a3.5 3.5 0 003.5-3.5v-8.5h-7V.5zm0 18V21a3.5 3.5 0 003.5 3.5.5.5 0 00.5-.5v-5.5h-4zm-1.978 6a6.466 6.466 0 01-1.02-3.345H19.5V3.5h-16V17a7.5 7.5 0 007.5 7.5h9.522zM6 14h7v3H6v-3zm9-6H6v3h9V8z" clip-rule="evenodd"></path></symbol></defs><use data-v-02b41ee4="" xlink:href="#icon-bet-parlay"></use></svg>