<svg width="50" height="50" viewBox="0 0 50 50" fill="none" xmlns="http://www.w3.org/2000/svg">
<g filter="url(#filter0_dd_428_170)">
<path fill-rule="evenodd" clip-rule="evenodd" d="M19.7484 11.6533C17.8308 12.0566 15.791 12.9414 15.791 12.9414C16.801 11.5243 18.8512 9.78836 18.8512 9.78836C18.2871 8.69664 17.7876 7.08027 17.7876 7.08027C17.7876 7.08027 20.1585 7.2143 22.0143 7.8348C22.0143 7.8348 25.1671 6.05471 28.4339 6C28.4339 6 26.0528 7.41618 25.0411 8.73481C25.3095 8.88029 27.2139 9.46729 28.697 10.3677C28.697 10.3677 26.0157 10.4458 23.555 10.7927C23.555 10.7927 22.6887 12.0515 21.9562 14.9166C21.9558 14.9166 20.6942 13.4851 19.7484 11.6533Z" fill="white"/>
<path fill-rule="evenodd" clip-rule="evenodd" d="M32.4875 14.0254C30.8639 12.1652 28.6973 10.3677 28.6973 10.3677C30.6902 10.397 33.6478 11.6083 33.6478 11.6083C34.2259 10.4827 34.6306 8.93372 34.6306 8.93372C34.6306 8.93372 35.7621 10.9064 36.276 13.0877C36.276 13.0877 38.6251 14.5365 40.3977 16.9613C40.3977 16.9613 38.5481 16.5639 37.1864 16.5707C37.1823 16.8837 37.6859 19.4573 37.5763 21.2268C37.5763 21.2268 36.0685 18.7028 34.6537 16.6004C34.6537 16.6004 32.3796 16.6428 29.9902 17.3154C29.9906 17.3154 31.3288 15.7232 32.4875 14.0254ZM35.0893 26.151C36.2867 24.0715 37.5767 21.2272 37.5767 21.2272C37.9724 23.1295 38.0079 25.5564 38.0079 25.5564C39.1958 25.2985 41.2986 24.2594 41.2986 24.2594C41.2986 24.2594 40.3618 26.8296 38.2619 28.8006C38.2619 28.8006 38.4744 30.3406 38.4991 32.3726C38.4991 32.3726 37.0139 31.691 35.7823 30.9289C35.52 31.0862 34.0315 32.1292 31.517 32.6653C31.517 32.6653 32.5818 30.9518 33.4625 29.2781C33.4625 29.2781 31.7092 28.0884 30.3204 26.1387C30.3204 26.1383 33.0207 26.4895 35.0893 26.151Z" fill="white"/>
<path fill-rule="evenodd" clip-rule="evenodd" d="M26.6187 21.9085C28.4555 24.2523 30.3195 26.1397 30.3195 26.1397C27.2742 25.6736 24.8016 24.7939 24.8016 24.7939C23.5647 26.8366 22.215 29.2113 22.215 29.2113C22.215 29.2113 21.4602 26.6351 21.3326 23.7111C21.3326 23.7111 19.8029 23.1597 16.9837 22.0163C16.9837 22.0163 18.9284 20.7727 21.282 20.0945C21.1444 19.815 21.5051 16.3388 21.9564 14.918C21.9564 14.918 23.3288 17.2096 24.4463 18.8942C24.4463 18.8942 26.6335 18.1299 29.9906 17.3164C29.9901 17.3164 28.1533 19.7175 26.6187 21.9085ZM9.89778 30.7738C9.71284 30.4154 9.54047 30.0503 9.38102 29.6791C9.41314 28.436 9.52102 26.8349 9.82984 25.593C9.82984 25.593 8.94498 24.9606 8.03006 24.1386C8.01976 23.9957 8.00782 23.8515 8 23.7069C8.5254 23.505 9.64084 23.0991 10.6151 22.8667C10.7266 22.5744 11.3332 20.5611 12.5054 19.172C12.5054 19.172 12.5845 20.5407 12.9032 22.3628C12.9032 22.3628 14.7536 21.931 16.9832 22.0154C16.9832 22.0154 14.9171 23.6916 13.6159 25.3945C14.0878 27.3578 15.0373 29.2422 15.0373 29.2422C13.6184 28.4152 12.1175 27.3196 12.1175 27.3196C11.5905 27.9652 10.5311 29.7067 9.89778 30.7738ZM21.7015 39.6887C21.4719 39.646 21.2433 39.5975 21.016 39.5432C20.2415 38.6877 19.0601 37.291 18.158 35.8231C18.158 35.8231 14.8302 35.5466 12.4852 34.4888C12.4852 34.4888 14.4246 34.1134 16.5542 32.9822C16.4167 32.7027 15.6047 31.1606 15.0369 29.2431C15.0369 29.2431 17.0709 30.9358 18.578 31.9266C18.578 31.9266 20.4934 30.7916 22.215 29.2113C22.215 29.2113 21.7781 31.3956 21.5364 33.8903C22.6487 34.5446 23.7701 35.1822 24.9004 35.8027C23.1641 36.0632 21.4549 36.0084 21.4549 36.0084C21.3874 37.3937 21.5681 38.8497 21.7015 39.6887ZM36.1792 35.2344C36.1792 35.2344 33.8841 35.8591 31.6442 35.9457C31.6442 35.9457 31.6273 34.3717 31.5161 32.6663C31.5161 32.6663 30.3265 34.4052 28.7738 36.0776C26.9403 36.0504 24.9004 35.8027 24.9004 35.8027C25.6 36.5361 26.3196 37.2492 27.0585 37.9404C25.6774 39.1496 24.401 39.9576 24.401 39.9576C24.5822 39.9601 24.7666 39.9614 24.949 39.9588C29.3083 39.8854 33.2479 38.0981 36.1792 35.2344Z" fill="white"/>
<path fill-rule="evenodd" clip-rule="evenodd" d="M8.20312 19.9041C8.20312 19.9041 9.42933 18.3288 10.8606 17.0497C10.8606 17.0497 11.339 17.9599 12.5068 19.1725C12.5068 19.1725 12.5154 17.6905 12.6826 15.3654C13.9903 14.1745 15.7926 12.9424 15.7926 12.9424C14.2979 12.8444 13.1825 12.9194 13.1825 12.9194C13.5292 11.1551 14.3123 9.26172 14.3123 9.26172C11.1344 11.8574 8.89775 15.6199 8.20312 19.9041Z" fill="white"/>
</g>
<defs>
<filter id="filter0_dd_428_170" x="0" y="0" width="49.2988" height="49.9602" filterUnits="userSpaceOnUse" color-interpolation-filters="sRGB">
<feFlood flood-opacity="0" result="BackgroundImageFix"/>
<feColorMatrix in="SourceAlpha" type="matrix" values="0 0 0 0 0 0 0 0 0 0 0 0 0 0 0 0 0 0 127 0" result="hardAlpha"/>
<feOffset dy="2"/>
<feGaussianBlur stdDeviation="2"/>
<feComposite in2="hardAlpha" operator="out"/>
<feColorMatrix type="matrix" values="0 0 0 0 0 0 0 0 0 0 0 0 0 0 0 0 0 0 0.35 0"/>
<feBlend mode="overlay" in2="BackgroundImageFix" result="effect1_dropShadow_428_170"/>
<feColorMatrix in="SourceAlpha" type="matrix" values="0 0 0 0 0 0 0 0 0 0 0 0 0 0 0 0 0 0 127 0" result="hardAlpha"/>
<feOffset dy="2"/>
<feGaussianBlur stdDeviation="4"/>
<feComposite in2="hardAlpha" operator="out"/>
<feColorMatrix type="matrix" values="0 0 0 0 0 0 0 0 0 0 0 0 0 0 0 0 0 0 0.72 0"/>
<feBlend mode="overlay" in2="effect1_dropShadow_428_170" result="effect2_dropShadow_428_170"/>
<feBlend mode="normal" in="SourceGraphic" in2="effect2_dropShadow_428_170" result="shape"/>
</filter>
</defs>
</svg>
