<svg xmlns:xlink="http://www.w3.org/1999/xlink" xmlns="http://www.w3.org/2000/svg" data-v-02b41ee4="" data-v-7b6799eb="" aria-hidden="true" class="svg-icon svg-icon--default svg-icon--primary prompt icon" width="26"  height="26" ><defs><symbol xmlns="http://www.w3.org/2000/svg" fill="none" viewBox="0 0 26 26" id="icon-match-detail-prompt"><rect width="26" height="26" fill="#000" fill-opacity="0.3" rx="13"></rect><path fill="#FFFFFF" fill-rule="evenodd" d="M23 12.947c0 5.523-4.477 10-10 10s-10-4.477-10-10c0-5.522 4.477-10 10-10s10 4.478 10 10zm-18.947 0a8.947 8.947 0 1017.894 0 8.947 8.947 0 00-17.894 0zM12 8a1 1 0 112 0v7a1 1 0 11-2 0V8zm2 10a1 1 0 11-2 0 1 1 0 012 0z" clip-rule="evenodd"></path></symbol></defs><use data-v-02b41ee4="" xlink:href="#icon-match-detail-prompt" fill="#FFFFFF"></use></svg>