<svg xmlns:xlink="http://www.w3.org/1999/xlink" xmlns="http://www.w3.org/2000/svg" data-v-02b41ee4="" data-v-7b6799eb="" aria-hidden="true" class="svg-icon svg-icon--default svg-icon--primary media-icon video icon" width="28"  height="28" ><defs><symbol xmlns="http://www.w3.org/2000/svg" fill="none" viewBox="0 0 16 16" id="icon-media-video-bb"><path fill="#FFFFFF" fill-rule="evenodd" d="M1.143 3.286a1 1 0 011-1h9.428a1 1 0 011 1V4.57l2.77-.923a.5.5 0 01.659.474v7.756a.5.5 0 01-.658.474l-2.77-.923v1.285a1 1 0 01-1 1h-9.43a1 1 0 01-1-1V3.286zM9.753 8.4a.5.5 0 000-.8L6.513 5.171a.5.5 0 00-.8.4v4.858a.5.5 0 00.8.4L9.752 8.4z" clip-rule="evenodd"></path></symbol></defs><use data-v-02b41ee4="" xlink:href="#icon-media-video-bb" fill="#FFFFFF"></use></svg>